<mxfile host="app.diagrams.net" modified="2022-06-28T07:03:29.633Z" agent="5.0 (Windows NT 10.0; Win64; x64) AppleWebKit/537.36 (KHTML, like Gecko) Chrome/102.0.0.0 Safari/537.36" etag="lvgFLzL2R_zdUS8LJ3sN" version="20.0.1" type="github">
  <diagram id="S2hqdw6fJzgqzdfDk5Jx" name="Page-1">
    <mxGraphModel dx="2249" dy="1963" grid="1" gridSize="10" guides="1" tooltips="1" connect="1" arrows="1" fold="1" page="1" pageScale="1" pageWidth="827" pageHeight="1169" math="0" shadow="0">
      <root>
        <mxCell id="0" />
        <mxCell id="1" parent="0" />
        <mxCell id="VsNUbqUsU7Xuz-TB7pVh-20" value="" style="whiteSpace=wrap;html=1;aspect=fixed;fontSize=13;strokeColor=#000000;fillColor=default;" vertex="1" parent="1">
          <mxGeometry x="-50" y="-133.75" width="932.5" height="932.5" as="geometry" />
        </mxCell>
        <mxCell id="VsNUbqUsU7Xuz-TB7pVh-8" value="" style="whiteSpace=wrap;html=1;aspect=fixed;" vertex="1" parent="1">
          <mxGeometry x="430" y="130" width="350" height="350" as="geometry" />
        </mxCell>
        <mxCell id="VsNUbqUsU7Xuz-TB7pVh-1" value="" style="rounded=0;whiteSpace=wrap;html=1;" vertex="1" parent="1">
          <mxGeometry x="60" y="160" width="240" height="320" as="geometry" />
        </mxCell>
        <mxCell id="VsNUbqUsU7Xuz-TB7pVh-2" value="ZWStrucutral" style="rounded=0;whiteSpace=wrap;html=1;" vertex="1" parent="1">
          <mxGeometry x="555" y="395" width="120" height="60" as="geometry" />
        </mxCell>
        <mxCell id="VsNUbqUsU7Xuz-TB7pVh-3" value="ZWStrucutralMedium" style="rounded=0;whiteSpace=wrap;html=1;" vertex="1" parent="1">
          <mxGeometry x="555" y="285" width="120" height="60" as="geometry" />
        </mxCell>
        <mxCell id="VsNUbqUsU7Xuz-TB7pVh-4" value="ZWStrucutralCore" style="rounded=0;whiteSpace=wrap;html=1;" vertex="1" parent="1">
          <mxGeometry x="555" y="175" width="120" height="60" as="geometry" />
        </mxCell>
        <mxCell id="VsNUbqUsU7Xuz-TB7pVh-5" value="" style="endArrow=classic;html=1;rounded=0;exitX=0.5;exitY=1;exitDx=0;exitDy=0;entryX=0.5;entryY=0;entryDx=0;entryDy=0;" edge="1" parent="1" source="VsNUbqUsU7Xuz-TB7pVh-4" target="VsNUbqUsU7Xuz-TB7pVh-3">
          <mxGeometry width="50" height="50" relative="1" as="geometry">
            <mxPoint x="465" y="325" as="sourcePoint" />
            <mxPoint x="515" y="275" as="targetPoint" />
          </mxGeometry>
        </mxCell>
        <mxCell id="VsNUbqUsU7Xuz-TB7pVh-6" value="" style="endArrow=classic;html=1;rounded=0;exitX=0.5;exitY=1;exitDx=0;exitDy=0;entryX=0.5;entryY=0;entryDx=0;entryDy=0;" edge="1" parent="1">
          <mxGeometry width="50" height="50" relative="1" as="geometry">
            <mxPoint x="614.5" y="345" as="sourcePoint" />
            <mxPoint x="614.5" y="395" as="targetPoint" />
          </mxGeometry>
        </mxCell>
        <mxCell id="VsNUbqUsU7Xuz-TB7pVh-11" value="Source" style="rounded=0;whiteSpace=wrap;html=1;" vertex="1" parent="1">
          <mxGeometry x="135" y="232.5" width="90" height="40" as="geometry" />
        </mxCell>
        <mxCell id="VsNUbqUsU7Xuz-TB7pVh-12" value="ZW_QA" style="rounded=0;whiteSpace=wrap;html=1;" vertex="1" parent="1">
          <mxGeometry x="135" y="312.5" width="90" height="40" as="geometry" />
        </mxCell>
        <mxCell id="VsNUbqUsU7Xuz-TB7pVh-13" value="3rdLib" style="rounded=0;whiteSpace=wrap;html=1;" vertex="1" parent="1">
          <mxGeometry x="135" y="397.5" width="90" height="40" as="geometry" />
        </mxCell>
        <mxCell id="VsNUbqUsU7Xuz-TB7pVh-14" value="&lt;font style=&quot;font-size: 13px;&quot;&gt;&lt;b&gt;ZWSim&lt;/b&gt;&lt;/font&gt;" style="rounded=0;whiteSpace=wrap;html=1;fillColor=default;strokeColor=#FFFFFF;" vertex="1" parent="1">
          <mxGeometry x="140" y="180" width="80" height="30" as="geometry" />
        </mxCell>
        <mxCell id="VsNUbqUsU7Xuz-TB7pVh-15" value="" style="endArrow=classic;html=1;rounded=0;fontSize=13;exitX=1;exitY=0.284;exitDx=0;exitDy=0;exitPerimeter=0;" edge="1" parent="1" source="VsNUbqUsU7Xuz-TB7pVh-1">
          <mxGeometry width="50" height="50" relative="1" as="geometry">
            <mxPoint x="330" y="270" as="sourcePoint" />
            <mxPoint x="430" y="251" as="targetPoint" />
          </mxGeometry>
        </mxCell>
        <mxCell id="VsNUbqUsU7Xuz-TB7pVh-16" value="" style="endArrow=classic;html=1;rounded=0;fontSize=13;entryX=0.5;entryY=1;entryDx=0;entryDy=0;" edge="1" parent="1" target="VsNUbqUsU7Xuz-TB7pVh-13">
          <mxGeometry width="50" height="50" relative="1" as="geometry">
            <mxPoint x="618" y="480" as="sourcePoint" />
            <mxPoint x="590" y="550" as="targetPoint" />
            <Array as="points">
              <mxPoint x="618" y="520" />
              <mxPoint x="180" y="520" />
            </Array>
          </mxGeometry>
        </mxCell>
        <mxCell id="VsNUbqUsU7Xuz-TB7pVh-17" value="Compile and Commit" style="edgeLabel;html=1;align=center;verticalAlign=middle;resizable=0;points=[];fontSize=13;" vertex="1" connectable="0" parent="VsNUbqUsU7Xuz-TB7pVh-16">
          <mxGeometry x="-0.0116" y="1" relative="1" as="geometry">
            <mxPoint as="offset" />
          </mxGeometry>
        </mxCell>
        <mxCell id="VsNUbqUsU7Xuz-TB7pVh-18" value="" style="endArrow=classic;html=1;rounded=0;fontSize=13;exitX=1;exitY=0.5;exitDx=0;exitDy=0;entryX=1;entryY=0.5;entryDx=0;entryDy=0;" edge="1" parent="1" source="VsNUbqUsU7Xuz-TB7pVh-4" target="VsNUbqUsU7Xuz-TB7pVh-2">
          <mxGeometry width="50" height="50" relative="1" as="geometry">
            <mxPoint x="720" y="620" as="sourcePoint" />
            <mxPoint x="770" y="570" as="targetPoint" />
            <Array as="points">
              <mxPoint x="730" y="205" />
              <mxPoint x="730" y="425" />
            </Array>
          </mxGeometry>
        </mxCell>
        <mxCell id="VsNUbqUsU7Xuz-TB7pVh-19" value="Compile and Commit" style="edgeLabel;html=1;align=center;verticalAlign=middle;resizable=0;points=[];fontSize=13;rotation=90;" vertex="1" connectable="0" parent="1">
          <mxGeometry x="730" y="285" as="geometry" />
        </mxCell>
      </root>
    </mxGraphModel>
  </diagram>
</mxfile>
